:SAMPLES-PER-SECOND 30
:FULLY-SPECIFIED
:DEGREES
247
root  -19.1135 35.2761 -8.00692 126.163 -74.6813 -133.497
RightUpLeg  -25.0533 -31.8206 11.0877
RightLeg  48.0322 -6.64131 -8.20495
RightFoot  -15.082 0.268904 10.857
RightToes  6.35927e-011 1.30204e-014 -6.03759e-014
Spine  17.3586 -9.45138 -19.9073
Spine1  -13.7289 -10.4863 -13.0426
HEad  -20.3593 -48.3496 -5.20815
LeftShoulder1  3.35937 -6.6184 -27.1032
LeftArm  2.06995 6.14644 -38.3625
LeftForeArm  -164.388 -61.1085 -164.352
LeftHand  -6.18559 15.9317 -59.03
RightShoulder  1.1613 1.18109 18.3298
RightArm  -32.1759 -24.9856 49.126
RightForeArm  122.053 81.1915 93.1535
RightHand  -10.2984 -29.6186 43.3147
LeftUpLeg  5.61369 -0.516696 46.7017
LeftLeg  22.6682 12.0027 5.8011
LeftFoot  7.16549 6.61243 -39.4214
LeftToes  7.40077e-010 7.2695e-011 -6.03601e-011
248
root  -19.0571 35.2291 -9.39005 123.1 -76.5908 -129.253
RightUpLeg  -26.3736 -30.2833 13.9091
RightLeg  48.3068 -10.9471 -13.2284
RightFoot  -19.2347 0.482407 8.75409
RightToes  6.35927e-011 1.30204e-014 -6.03759e-014
Spine  18.5725 -10.5956 -17.7292
Spine1  -14.5534 -11.4025 -15.4333
HEad  -22.7043 -48.749 -4.00117
LeftShoulder1  3.28425 -6.46564 -26.8502
LeftArm  1.17929 5.37692 -37.7869
LeftForeArm  -168.291 -60.5182 -164.391
LeftHand  -6.29357 17.2761 -53.6289
RightShoulder  1.1537 1.15603 18.294
RightArm  -32.7322 -27.2606 49.0065
RightForeArm  141.727 80.7594 110.265
RightHand  -7.08791 -25.6201 36.777
LeftUpLeg  1.32784 3.3233 46.983
LeftLeg  25.8263 9.56091 5.2451
LeftFoot  9.37251 6.28538 -33.6607
LeftToes  7.40077e-010 7.2695e-011 -6.03601e-011
249
root  -18.9269 35.128 -10.7218 123.768 -77.7857 -130.655
RightUpLeg  -26.3906 -28.2439 14.9801
RightLeg  49.9014 -13.4401 -16.8083
RightFoot  -19.5691 0.382344 7.13423
RightToes  6.35927e-011 1.30204e-014 -6.03759e-014
Spine  19.9654 -10.186 -16.3982
Spine1  -14.0732 -10.9026 -17.3942
HEad  -26.1919 -47.8621 -3.439
LeftShoulder1  3.22194 -6.25694 -26.9175
LeftArm  0.548438 2.31499 -38.884
LeftForeArm  -168.873 -59.2598 -165.109
LeftHand  -5.7589 16.5446 -52.5322
RightShoulder  1.04119 0.915275 16.9874
RightArm  -33.5864 -26.8895 48.0363
RightForeArm  152.646 79.6619 122.776
RightHand  -7.84413 -27.0826 37.53
LeftUpLeg  -3.07058 9.45974 45.6965
LeftLeg  38.5418 7.60302 6.99616
LeftFoot  5.02873 4.18676 -28.6545
LeftToes  7.40077e-010 7.2695e-011 -6.03601e-011
250
root  -18.8299 35.0353 -12.0403 125.615 -78.4876 -133.819
RightUpLeg  -24.9486 -26.947 15.7643
RightLeg  50.4358 -14.2424 -18.0339
RightFoot  -20.0601 0.297427 5.69183
RightToes  6.35927e-011 1.30204e-014 -6.03759e-014
Spine  21.04 -9.081 -16.3181
Spine1  -13.4093 -9.97589 -17.7952
HEad  -26.3497 -47.0832 -4.83025
LeftShoulder1  3.24228 -6.29066 -27.015
LeftArm  0.842507 -0.945712 -41.389
LeftForeArm  -167.738 -59.0291 -165.33
LeftHand  -5.93415 16.239 -55.2346
RightShoulder  0.919431 0.621746 15.6101
RightArm  -34.4634 -24.6162 46.781
RightForeArm  155.502 79.2563 125.912
RightHand  -9.51635 -29.5219 40.7487
LeftUpLeg  -7.30223 14.4689 42.9816
LeftLeg  56.5472 7.80323 13.2041
LeftFoot  -1.02566 2.17474 -23.763
LeftToes  7.40077e-010 7.2695e-011 -6.03601e-011
251
root  -18.7867 34.9515 -13.3263 125.833 -78.8058 -134.542
RightUpLeg  -23.6797 -26.7143 17.4785
RightLeg  49.8631 -14.7625 -18.2697
RightFoot  -22.3276 0.373691 5.44262
RightToes  6.35927e-011 1.30204e-014 -6.03759e-014
Spine  21.2464 -8.40875 -16.5019
Spine1  -13.4605 -9.53709 -17.0008
HEad  -23.968 -47.4684 -6.22857
LeftShoulder1  3.31687 -6.59488 -26.7496
LeftArm  1.3824 -2.43569 -43.6099
LeftForeArm  -167.256 -59.3299 -165.197
LeftHand  -5.95041 16.3925 -54.6803
RightShoulder  0.872529 0.476216 15.2095
RightArm  -35.4562 -22.4537 46.3102
RightForeArm  157.196 79.4935 125.059
RightHand  -8.87968 -28.92 39.0458
LeftUpLeg  -11.5185 19.1897 39.2598
LeftLeg  73.1998 5.01897 18.7499
LeftFoot  -4.48876 1.18763 -19.3697
LeftToes  7.40077e-010 7.2695e-011 -6.03601e-011
252
root  -18.7738 34.8888 -14.6217 124.525 -78.7531 -133.052
RightUpLeg  -22.9906 -27.051 20.0393
RightLeg  48.7329 -15.6227 -18.5106
RightFoot  -24.0875 0.421862 5.24817
RightToes  6.35927e-011 1.30204e-014 -6.03759e-014
Spine  20.6884 -8.24171 -16.64
Spine1  -13.8407 -9.49022 -15.9679
HEad  -21.7543 -48.8424 -6.1901
LeftShoulder1  3.34698 -6.86154 -26.1726
LeftArm  1.88799 -2.64105 -44.6959
LeftForeArm  -167.851 -58.7665 -165.467
LeftHand  -5.70487 16.3863 -52.7559
RightShoulder  0.871089 0.44941 15.3317
RightArm  -36.7665 -21.1621 47.0364
RightForeArm  159.473 79.4336 126.029
RightHand  -7.95659 -27.9077 36.794
LeftUpLeg  -14.9109 24.4436 34.7526
LeftLeg  85.0855 0.677798 15.7809
LeftFoot  -6.26832 0.816837 -17.5576
LeftToes  7.40077e-010 7.2695e-011 -6.03601e-011
253
root  -18.744 34.7978 -15.9317 122.341 -78.5363 -130.813
RightUpLeg  -22.4382 -27.4835 22.7084
RightLeg  47.6754 -16.2201 -18.4876
RightFoot  -23.6695 0.208042 3.38143
RightToes  6.35927e-011 1.30204e-014 -6.03759e-014
Spine  20.1389 -8.2255 -16.7074
Spine1  -13.9066 -9.48128 -15.2122
HEad  -20.7311 -50.3032 -5.30866
LeftShoulder1  3.29185 -6.86288 -25.6147
LeftArm  2.95432 -2.97443 -45.1398
LeftForeArm  -168.501 -57.5145 -166.104
LeftHand  -5.80834 16.323 -53.8355
RightShoulder  0.862038 0.410122 15.3215
RightArm  -37.8076 -20.4328 48.3673
RightForeArm  160.828 78.946 128.947
RightHand  -8.88214 -29.1136 38.7559
LeftUpLeg  -16.3178 29.5326 29.7793
LeftLeg  92.1401 -0.727683 5.87336
LeftFoot  -8.42306 0.55592 -20.0725
LeftToes  7.40077e-010 7.2695e-011 -6.03601e-011
